/* XPM */
static char *cac247217a544ee381d7612ee0db0dfb1iUajtVLokxCAts5[] = {
/* columns rows colors chars-per-pixel */
"64 64 256 2 ",
"   c #36150C",
".  c #310B05",
"X  c #362A0F",
"o  c #3B3B34",
"O  c #343326",
"+  c #4B0200",
"@  c #5A0F04",
"#  c #462518",
"$  c #572B19",
"%  c #5A321D",
"&  c #58331B",
"*  c #4A2D12",
"=  c #662A17",
"-  c #663A1B",
";  c #763B18",
":  c #723509",
">  c #4D2C24",
",  c #522D25",
"<  c #552B2A",
"1  c #5B2E24",
"2  c #4A3728",
"3  c #543324",
"4  c #5B3424",
"5  c #5B3926",
"6  c #55352B",
"7  c #5A352B",
"8  c #553A2D",
"9  c #5B392D",
"0  c #533926",
"q  c #493C38",
"w  c #5B3532",
"e  c #543C33",
"r  c #5C3C33",
"t  c #553A38",
"y  c #633423",
"u  c #633C24",
"i  c #633C2B",
"p  c #6B3C2B",
"a  c #683827",
"s  c #743A27",
"d  c #613D34",
"f  c #633A37",
"g  c #74382D",
"h  c #691D0F",
"j  c #384130",
"k  c #694619",
"l  c #78461A",
"z  c #7A4F0F",
"x  c #5B4429",
"c  c #484738",
"v  c #5D4134",
"b  c #5C433B",
"n  c #5D4B3C",
"m  c #564637",
"M  c #5B533A",
"N  c #49482D",
"B  c #63422D",
"V  c #6C432C",
"C  c #694928",
"Z  c #764728",
"A  c #6A5428",
"S  c #775429",
"D  c #624235",
"F  c #6A4332",
"G  c #62433A",
"H  c #624B3C",
"J  c #684938",
"K  c #7A4B32",
"L  c #734837",
"P  c #63533D",
"I  c #695439",
"U  c #785638",
"Y  c #776636",
"T  c #4F461C",
"R  c #6A3D42",
"E  c #4E3E43",
"W  c #4B4743",
"Q  c #534343",
"!  c #5B4B44",
"~  c #564949",
"^  c #5C5345",
"/  c #595649",
"(  c #5B5651",
")  c #4F5146",
"_  c #624543",
"`  c #644A43",
"'  c #694A44",
"]  c #635443",
"[  c #675748",
"{  c #785946",
"}  c #675A55",
"|  c #714F4D",
" . c #5C6856",
".. c #67624B",
"X. c #766649",
"o. c #686558",
"O. c #756657",
"+. c #76755B",
"@. c #77734F",
"#. c #756865",
"$. c #797769",
"%. c #7A7672",
"&. c #6B6964",
"*. c #853D16",
"=. c #913A12",
"-. c #873D27",
";. c #985319",
":. c #8B4915",
">. c #AB501B",
",. c #9B6B17",
"<. c #A76B1B",
"1. c #884929",
"2. c #974C28",
"3. c #895528",
"4. c #985729",
"5. c #874835",
"6. c #9A4D35",
"7. c #865737",
"8. c #975836",
"9. c #A74A27",
"0. c #A75A27",
"q. c #B45727",
"w. c #A65838",
"e. c #B65B36",
"r. c #B94F25",
"t. c #99662B",
"y. c #8A6538",
"u. c #986836",
"i. c #9A7439",
"p. c #916B2A",
"a. c #A8652B",
"s. c #B6682C",
"d. c #B77729",
"f. c #A96836",
"g. c #B76937",
"h. c #A77739",
"j. c #B97638",
"k. c #AB742B",
"l. c #C55528",
"z. c #D15733",
"x. c #C66839",
"c. c #C57739",
"v. c #CD6D36",
"b. c #D5512E",
"n. c #855945",
"m. c #965746",
"M. c #AB5D45",
"N. c #8A6846",
"B. c #956544",
"V. c #8E7255",
"C. c #A56645",
"Z. c #B86744",
"A. c #A77A46",
"S. c #B97745",
"D. c #B46455",
"F. c #A97856",
"G. c #B97556",
"H. c #8D6C63",
"J. c #887967",
"K. c #937367",
"L. c #8D7770",
"P. c #B47363",
"I. c #C96C44",
"U. c #C97946",
"Y. c #C87953",
"T. c #D47B4F",
"R. c #C17567",
"E. c #EB6F4B",
"W. c #7B8774",
"Q. c #748669",
"!. c #B9872C",
"~. c #B98637",
"^. c #B28F33",
"/. c #C88737",
"(. c #D5893A",
"). c #C9973A",
"_. c #D79639",
"`. c #C6922E",
"'. c #D6A639",
"]. c #DAB33C",
"[. c #CFA53F",
"{. c #E19F3E",
"}. c #9A8851",
"|. c #B98747",
" X c #B89748",
".X c #B68959",
"XX c #BA9756",
"oX c #A98D4E",
"OX c #878578",
"+X c #928B6F",
"@X c #B2916C",
"#X c #B8A679",
"$X c #C88549",
"%X c #D48A44",
"&X c #DC8D4B",
"*X c #D78847",
"=X c #C69749",
"-X c #D59749",
";X c #C88756",
":X c #D58856",
">X c #C99659",
",X c #D89958",
"<X c #E3934C",
"1X c #E49453",
"2X c #E89A58",
"3X c #E99556",
"4X c #CCA749",
"5X c #D8A848",
"6X c #DBB447",
"7X c #CAA457",
"8X c #D9A658",
"9X c #DBB354",
"0X c #E4A84B",
"qX c #E5B84A",
"wX c #E4AA57",
"eX c #E7B659",
"rX c #F2B95B",
"tX c #F1A658",
"yX c #D88B62",
"uX c #D09669",
"iX c #E69864",
"pX c #E59972",
"aX c #D9A665",
"sX c #D2B370",
"dX c #E8AA67",
"fX c #E9B56A",
"gX c #F2BB67",
"hX c #F6BB76",
"jX c #EEAF6E",
"kX c #EDC253",
"lX c #F3C65B",
"zX c #E9C04C",
"xX c #DEC171",
"cX c #F6C767",
"vX c #FBC875",
"bX c #FBD476",
"nX c #EDC96D",
"mX c #DDC15E",
"MX c #969688",
"NX c #909087",
"BX c #A7968E",
"VX c #9DA599",
"CX c #9FA38A",
"ZX c #ADA48F",
"AX c #B1B0A6",
"SX c #C7B192",
"DX c #D6BDA5",
"FX c #F5BF81",
"GX c #D9C897",
"HX c #F7D085",
"JX c #FFE58D",
"KX c #D7CCAB",
"LX c #E4D8B5",
"PX c #E1D2A4",
"IX c #E8E1BB",
"UX c #EDE9C9",
/* pixels */
"P.+ 5.g $ , , > < < < < < < , , 1 1 % 4 4 4 4 3 3 3 3 4 7 7 w 7 > x 0 x x D ' 7 f R R f 7 u % & 5 4 y 4 4 4 4 4 4 4 4 4 4 % % % ",
"D.+ 5.g $ $ , > < < < < < < , , 1 1 1 4 4 4 3 4 3 3 4 4 7 7 w 7 r 0 9 9 5 i 7 w w w w w 4 5 u & 4 4 4 4 4 4 4 4 4 4 4 4 4 % % % ",
"D.@ 5.a $ # , > < < < < < , , , 1 1 1 4 4 4 4 4 3 3 4 7 7 w i w D 0 D 0 & u $ i f < f f 7 4 u % 5 4 4 4 4 4 4 4 4 4 4 4 4 % % & ",
"D.@ 5.y $ # , > < < 1 1 , , 3 3 4 4 4 4 4 4 4 4 3 3 4 7 7 i i i 7 i B 5 % u V V L i f J 7 4 u % 5 9 9 5 4 4 4 4 4 4 4 4 4 4 3 3 ",
"D.h 5.= $ * , , 3 7 1 1 4 3 3 3 4 4 4 4 4 4 4 5 5 5 9 9 i i i i y i y 7.Z - u.7.p y i d 7 9 i 4 9 9 9 9 7 7 7 7 7 7 4 4 3 3 3 3 ",
"D.= 5.= % $ 3 6 3 4 7 4 3 3 3 3 4 4 4 4 4 4 5 5 5 9 9 i i i p p p y a F.u.l .XA.$ - y 1 7 d d 9 9 9 9 9 5 7 7 7 7 7 6 3 3 3 3 3 ",
"D.-.5.$ y & 5 9 3 4 4 4 3 3 3 3 4 4 4 7 7 9 9 5 9 9 i i i i a a g s 8.;Xf.t.aXS.: 7.Z % i G d 7 w 9 9 9 9 9 9 9 8 8 6 6 3 6 6 6 ",
"D.-.5.$ u 4 5 v 3 4 4 4 4 3 3 3 4 4 7 7 9 9 9 9 9 i i i u a a p s -.G.;Xt.$XfXh.:.A.B.y F ' w , w w 9 9 9 9 9 9 8 8 6 6 6 6 6 6 ",
"G.M.= $ u 5 0 > 3 3 3 3 3 3 3 3 4 4 7 7 7 9 w 9 7 4 $ % V P.B.Z = 8.uX;Xa.dXwX:.h.uX8.y i 7 G d w w 9 9 9 9 9 9 6 6 6 6 3 > > > ",
"G.6.= = u 5 0 0 3 3 3 3 3 3 3 0 4 4 7 7 9 w r r 9 5 4 u n..Xy.; ; S.pXj.~.vXwX:.$XuX8.- a 4 d 7 9 9 9 9 9 9 9 9 6 6 6 6 6 3 2 3 ",
"R.-.= = i 3 > 0 3 3 3 3 3 0 0 0 7 7 7 7 w r r r d i i V F.@X7.; 1.;XdX<.-XvX).z aX>X1.- V y d 9 9 9 9 9 9 7 7 7 3 3 3 3 3 3 3 3 ",
"R.= = y i 3 > 8 6 3 3 7 6 6 6 0 5 9 9 r r r r r d i V K @X.XZ ; f.,XwX<.wXvXd.<.fX|.; - K p F d 9 9 9 9 9 9 9 5 3 3 3 3 4 4 4 4 ",
"R.@ = y i 3 > 8 6 3 7 7 8 8 8 0 5 9 r r r r d d d i V 7.uXF.l l |.8X).!.eXwX,.8XHXS.; Z K p V i i i i i i i i i 4 4 4 4 4 4 4 4 ",
"P.+ y y i 7 3 8 8 8 w 7 w 8 8 8 9 9 r r r d d G d i V N.uXA.l t.=X-Xd.).qX`.,.hXHXA.l K K V V y F F F F F F F F i i i 4 4 4 4 & ",
"P.+ s y 4 9 6 6 w w w w w e e 8 r r r r d G G G G i V V.@XA.l h.wX5X`.0XrX`.!.vXjXu.l 5.K U U V L L L L L F F F F V i i 4 % % $ ",
"P.. p 1 , r 8 6 w w w w w e e e r r r v b G G G J V Z F..Xh.3.=XwX0X).0XrX!.-XdX,X:.; 1.7.m.B.7.K K K K K K K K K V p u 4 & $ * ",
"H.  r 7 r 9 9 8 8 8 w w w w r r D B v G _ _ _ _ { U Z .XaXj.$X,XgX).5XvX5X/.fXfX|.: l 8.8.C.w.M.8.7.1.3.1.Z 1.8.5.5.5.a y 5 0 > ",
"H.  w 8 r 9 9 9 8 9 9 9 w w r r B B D G _ _ _ H I C k .X8Xk.d.%X-X!.).gX8X=XfXhX|.:.2.w.w.Z.M.Z.w.8.4.4.4.1.2.6.6.6.5.s y 9 0 2 ",
"H.  w 8 r w 9 9 9 7 9 w w r r r B B D _ _ ` ` H I k l XX,Xd.j.c.-X`.!.5X-X=XfXFXh.3.8.w.w.Z.w.Z.Z.f.f.t.8.f.w.w.w.w.6.5.p i 0 2 ",
"H.  w 8 r w 9 9 9 9 w w r r r r B B G H _ ` ` H C C u.>X,X-X,X/.wX5X).5X5X=XaXaX3.4.w.6.w.Z.e.Y.Y.$XU.j.g.S.S.g.Z.M.w.5.Z p 5 0 ",
"H.  r 7 r w w 9 w w w w r r r r D D G H ` ` ` J C C h.aX8X8XdX).5XqX5XrXgX8X;XS.; 2.w.9.w.Z.Z.:X:X,X:X$XU.$XY.I.Z.e.w.6.K p i 9 ",
"H.  r 7 r w w w w w r r r r d v D D G ` ` ` ' J C k h.fX8X-X1X0X5XqXqXcXvXdX;Xf.*.8.w.w.Z.I.Y.yX1X1X1X&X%X*XU.U.x.e.w.6.5.Z i B ",
"H.  r 7 r r w w r r r r r d d v D n n ` ` ` ' J S l |.fX,X/.%XwXqXkXeXgXcXjX;X4.1.w.w.Z.Z.Z.I.:X1X&X&X&X%Xc.c.I.x.e.9.6.5.s p F ",
"H.  r 7 r r w w r r r r r d D v D n H ` ` ' J L S p.>XfX-X/.%X0XqXkXkXcXvXjX$X*.2.6.w.Z.g.e.x.U.&X(.(.&X%Xc.x.x.s.q.9.6.1.s p L ",
"H.# 8 d w w w 8 r r r r d G G G I P ` H ` ' I U l u.>XdX-X/.(.tX6XkXcXcXgXdXS.:.8.C.2.w.Y.Z.g.c.(.(.(.(.<X<Xv.v.e.q.9.6.-.s Z u ",
"H.# 7 d w 9 w 8 r r r r G G G G I P H H H J L K S h.8XfX-X/._.tXqXlXlXeXeXdXS.;.4.w.w.:XpXS.S.:X&Xc.<XtX2X&Xc.x.x.e.e.w.1.Z V u ",
"H.# 7 d w w w 8 r r r r D G G G P P H n G J F Z 3.A.8XgX0X/._.0XcXlXkXeXeXwXj.;.0.f.g.pX:X*.4.S.c.<.&XtX%X*X*Xx.x.x.e.6.1.Z p C ",
"H.# 7 G r w w 8 r r r d D G G G P P n n G F V Z u.|.wXgX0X`._.0XcXlXlXrXgXeXj.;.a.f.f.pXG.; f.;Xs.s.1X1X%X2X&Xq.;.9.2.1.1.Z - C ",
"K.# 9 D r w w 8 r r r D D G G G P M n n G J C Z u.~.wXrX0X`.(.0XeXeXeXeXeXwX~.;.,X,XS.;X8.: 1.:.a.U.dXdXdXiXs.=.: =.*.*.1.Z - x ",
"K.# 9 G r w r 7 r r d D G G G G P M n n J J K S t.~.8XrX0X_._.0XeX9X5X5X5X5X).d.wXjXjX>Xu.8.F.C.f.c.iXdXjX:X0.0.g.g.w.1.Z Z C C ",
"K.# w G r r r 7 d d d D G G G G P M M H I U 7.7.u.~.wXrX0X_._.0XwXwXeXeXeXwX0X5XgXhXjXh.l 7.B.7.f.g.,XdX:XS.g.;XyXY.C.1.Z Z U U ",
"K.# w G r r r 9 d r D G G G G G P M P P I U y.t.f.|.wXgXrX0X{.0XwXfXvXbXbXcXgXgXvXdX$X: : C.B.8.2.0.iXiXa.4.g.g.0.2.2.4.1.U N.U ",
"K.# d r 8 r 7 D d r D D G G H G J C A A y.y.z h.=X~.8XgXeX_.qXlXcXbXJXJXJXJXHXfXhX$X: ;.g.f.;XyXT.9.I.Y.g.yX:Xg.9.:.=.S.C.Z F.K.",
"K.# f r 8 r 7 D d r v G G G H G D B A A y.p.t.8XdXdX8X-XeX'.'.cXcXbXJXHXHXsXsXsXS.4.:.a.U.U.Y.Y.T.q.I.e.9.yXiXI.s.0.9.;XG.7.K.n.",
"K.# d r 8 w 9 D r r r G G H H H G J V S y.t.~.fXfX8X8X5XqX'.qXkX6XeXnXxXxXsXXXA.:.4.c.U.$X:XY.:XI.9.x.g.:.:XiX:Xc.g.0.;XC.7.n.4 ",
"K.# D r 6 r 9 D r r r G G H H _ | ' V K i.i.h.=XbXeXgXcXcXkXlX[.9X8XsXsX@XA.3.: :.S.2X:Xc.U.:XiXx.>.I.:X9.g.U.T.U.U.s.S.8.Z L $ ",
"K.# D r 6 9 8 v r r v G G G G _ | ' p 7.i.t.k.~.nXbXcXeXbXlX6X4X=XXXoXi.S k l l a.:X*Xc.g.c.dX2XI.q.T.iX0.0.g.s.c.U.j.j.1.Z B 3 ",
"K.# D r 3 9 8 v r r v G G G G G ' ' L B.h.t.k.~.!.9XbXbXnXmXmXsXi.y.S k - C 7.u.S.:Xs.c.&X1XhX:Xx.q.U.*X0.g.*Xg.s.c.g.g.l Z & 3 ",
"K.# v 9 3 9 8 v v r v D G D G G L L 7.F.|.~.^.^.,.^.bXHXxXxXxXXXS Z u B L U 7.3.S.c.s.*XtXjXdX$Xq.>.T.T.s.s.2X&Xc.s.a.a.l K * 0 ",
"K.# v 9 0 8 8 v v v v D D F F F K 7.y.>XaX).!.,.,.^.i.i.sXsX}.k & u F L L n.m.C.g.0.x.&XtX2X%Xc.q.>.iX2Xs.:.&X3X&Xc.0.4.l 7.0 P ",
"X.X v * 8 v v H r r > B J n.n.7.3.3.h.8XvXbX).z k.p.p.y.k U & x J ' d G L L m.8.Z.U.c.*X<X2X&Xc.s.c.iXiXc.c.1X3X&Xd.;.4.l * 9 v ",
"V.# v > 8 v e v b v D B L V V S 3.,.!.4XrXcX9X^.h.p.y.Y x n v H ' ' G _ ' L n.8.f.c.*X3X2X2X&Xc.U.U.:X:Xg.g.&X3X&Xc.0.4.l * 9 m ",
"K.# v 2 e e 8 8 H H X.I N.- Z 3.,.!.).[.qXkXlXxX|.y.N.I n ! [ ! ' _ ` _ G { 7.8.f.c.&X2XtX<X%X$X2X2X,X$Xj.j.%X1X&X/.s.4.- * v e ",
"H.  D 8 8 2 e m n D { U V.C S p.!.'.qXqXqX6X9XsXXXy.I G ` } } ! [ b ' b G { K 8.Z.c.&X3X<X/./.%XdXjXiX:X$Xc.c.1X<X%Xj.4.- 3 m q ",
"H.  G r e 2 m ` ] D x A U Z S t.`.qXzXqXqX5X=XXX.Xy.9 ` [ } } ^ [ n [ b G { K 8.g.c.&X1X%Xd.k.U.:X,X:X$Xc.s.c.2X<X%Xj.3.& 0 b q ",
"H.. r r e e n ] +.{ x S k 3.t.~.[.].6X].6X4X XoXB.U 9 [ } [ [ [ [ ] ] n G L K 3.a.j.&X1X%Xd.a.f.j.S.g.a.a.;.s.tX1Xc.g.:.% 9 Q q ",
"L.. 6 e b m n m O.{ U N.l i.|.=X6X].6X6X4X=X|.u.S J 9 ] H.P P ..[ [ n n G J U 3.4.j.&X&X&X$Xj.f.$XS.f.f.a.0.s.<X3Xc.0.l % v Q q ",
"BX. > e ! ! m 2 2 m N.}.y.h.=X=X6X].qXqX4X XA.S C B 8 m +XP P P ] [ m n H D U S t.j.$X%X%X$X$X|.aX;X$X$X$Xs.s.U.iXg.4.; 4 G c q ",
"SX  w e X b [ ^ [ O x Y y.h.,X/.].].kXeX Xh.y.x ' v [ O.J.O.M M H [ ^ ^ NXo.[ U i.f./.-X-X-X7X X=X=X/.c.c.c.U.$XyXC.Z i G b e 2 ",
"KXH.r v [ n 2 $.^ ..I k i.|.,X0X'.].6X9XXXu.S J b ` } ! ^ O.[ m { n o.o.) $.ZX{ 7.3.k.j.!.).7X7X,X-X%X/.c.c.c.S.G.n.D r b m e 2 ",
"DXSX9 * X...2 ..M OX+XY oX=X-X0X'.'.5X4XXXS & { ` [ } Q m [ ] [ D ] } o.~ o.L.I U 4.f.d.k.d.=X7XdXwX,X-X$Xj.f.C.n.L r t b t e e ",
"DXSXJ * n ] O...2 M @.N.^.~.'.'.'.[.4X=XoXA x { ` } #.! c ^ [ O.n H.O.} &.Q e J 7.u.f.j.k.d.~.|.aXaX,X,X$Xj.f.y.V r t Q Q q t ! ",
"PX#XU * 0 X O.+./ ..X.Y ^.^.'.'.[.4X7X Xy.A I [ t #.L.Q q o.o.] H | O.( ( } BX+XU 7.4.a.f.j.j.j.$X;X$X$XS.f.7.U 9 e Q ~ ~ E ~ | ",
"GXsXV.* I 0 m m ..+X+XY  X^.!.'.4X4X7XoXA A { ` m } %.~ q } [ ! [ b } } } } ZXBX{ 7.3.4.0.a.a.a.f.f.f.f.a.4.Z V D t Q ~ ~ Q ~ } ",
"GXSX#XC X.X.2 2 o +.V.Y  X^.^.6X4X7XXXy.C A ] ! } } #.} ~ ( ^ } } #.} ( &.q ! O.{ n.8.4.w.0.;.0.t.t.t.4.4.2.1.Z L r t Q Q Q Q ( ",
"PX#XSXX.x 0 O } } N N Y }. X4X4X7XsX}.S A J m ! } #.%.( ~ #.o.} q J.} q ~ ( Q b 8 { B.C.Z.f.q.g.f.f.a.0.0.2.2.1.5.f w t E E W W ",
"IXPX+XX * m [ #.} &.^ @.N.oX X XXXoX}.@XI 2 ! ( ( ( } W o.( NXOXm #.} ~ W ~ #.t _ ' B.F.G.U.x.q.f.a.j.g.x.e.=.w.m.5.' ' ! c ( O ",
"KXKXZXJ.+XL.} #.~ o c O.}.A oX}.S A V.+XM M } ~ NX( ) W ( ~ #.$.c AXMXq ) W L.%.t ` { P.G.e.x.s.a.j.j.s.x.r.9.9.6.m.| w 2 c / ) ",
"IXLXKXKXDXJ.> ! W O W OX+XX @.N.x x I T M M c o.OXW W / Q } o.( c VXOXc %.( CXMXq ` G V.D.9.x.v.j.$Xs.>.l.l.x.e.w.m.L r 2 c N $.",
"UXUXLXLXSXX.X ] ( W o.AXNXN N @.[ M [ [ OX^ c $./ / o.$.W L.BXo.( %.) ) OX/ AXNX( ~ t n.C.w.I.E.c.U.>.>.l.l.x.e.D.5.i 2 ^ / N ..",
"UXUXLXLXSX+XI J.MX%.o.OXW.$.m ZX+.X M $.o.c NXMXo ( o.%.o OXAX( NXMXc c ..c MXMX&.W ! L m.Y.I.v.v.l.l.r.l.q.:.8.F.n.+X../ / +.OX",
"UXUXIXLXPXSXV.P +Xo.W o &.OXW MX..O c c O O VXVXc ) / $.O &.OXO NXVXc +.CX/  .VX%.W [ ' m.Y.z.l.z.l.z.l.r.q.4..X@XX.+XOX$.c J.CX",
"UXUXUXPXGXGXV.X N N c o &.%.o ) / c / c )  .OXo.o.) $.OXc OX$.O W.Q.j +XKXo.c VXNXW ~ ' 5.Z.z.r.b.z.z.l.e.f.u.}.+XM c  .W.) [ O.",
"UXKXIXGXGXGX@XX N / c j o ( W o.o.O ) c / OXOXj W.) OX%.c CXOXo.W. .j +.+X/ &.AXVX( q G a -.z.b.b.E.b.z.I.0.l X T Q.W. . .c ^ ` "
};
